<svg xmlns="http://www.w3.org/2000/svg" xmlns:xlink="http://www.w3.org/1999/xlink" id="visual" version="1.1" viewBox="0 359 900 242"><path d="M0 443L21.5 442.2C43 441.3 86 439.7 128.8 426.5C171.7 413.3 214.3 388.7 257.2 377.7C300 366.7 343 369.3 385.8 380.5C428.7 391.7 471.3 411.3 514.2 422.8C557 434.3 600 437.7 642.8 434C685.7 430.3 728.3 419.7 771.2 406C814 392.3 857 375.7 878.5 367.3L900 359L900 601L878.5 601C857 601 814 601 771.2 601C728.3 601 685.7 601 642.8 601C600 601 557 601 514.2 601C471.3 601 428.7 601 385.8 601C343 601 300 601 257.2 601C214.3 601 171.7 601 128.8 601C86 601 43 601 21.5 601L0 601Z" fill="#fa7268"/><path d="M0 430L21.5 434.2C43 438.3 86 446.7 128.8 449.2C171.7 451.7 214.3 448.3 257.2 441.3C300 434.3 343 423.7 385.8 421C428.7 418.3 471.3 423.7 514.2 429.5C557 435.3 600 441.7 642.8 444.7C685.7 447.7 728.3 447.3 771.2 452C814 456.7 857 466.3 878.5 471.2L900 476L900 601L878.5 601C857 601 814 601 771.2 601C728.3 601 685.7 601 642.8 601C600 601 557 601 514.2 601C471.3 601 428.7 601 385.8 601C343 601 300 601 257.2 601C214.3 601 171.7 601 128.8 601C86 601 43 601 21.5 601L0 601Z" fill="#ef5f67"/><path d="M0 455L21.5 463.7C43 472.3 86 489.7 128.8 489C171.7 488.3 214.3 469.7 257.2 459.3C300 449 343 447 385.8 450.3C428.7 453.7 471.3 462.3 514.2 470.5C557 478.7 600 486.3 642.8 485.2C685.7 484 728.3 474 771.2 476.8C814 479.7 857 495.3 878.5 503.2L900 511L900 601L878.5 601C857 601 814 601 771.2 601C728.3 601 685.7 601 642.8 601C600 601 557 601 514.2 601C471.3 601 428.7 601 385.8 601C343 601 300 601 257.2 601C214.3 601 171.7 601 128.8 601C86 601 43 601 21.5 601L0 601Z" fill="#e34c67"/><path d="M0 524L21.5 526.2C43 528.3 86 532.7 128.8 535.2C171.7 537.7 214.3 538.3 257.2 539C300 539.7 343 540.3 385.8 538.5C428.7 536.7 471.3 532.3 514.2 528.7C557 525 600 522 642.8 524C685.7 526 728.3 533 771.2 533.5C814 534 857 528 878.5 525L900 522L900 601L878.5 601C857 601 814 601 771.2 601C728.3 601 685.7 601 642.8 601C600 601 557 601 514.2 601C471.3 601 428.7 601 385.8 601C343 601 300 601 257.2 601C214.3 601 171.7 601 128.8 601C86 601 43 601 21.5 601L0 601Z" fill="#d53867"/><path d="M0 557L21.5 559.3C43 561.7 86 566.3 128.8 564.2C171.7 562 214.3 553 257.2 548C300 543 343 542 385.8 543.5C428.7 545 471.3 549 514.2 547.7C557 546.3 600 539.7 642.8 541.7C685.7 543.7 728.3 554.3 771.2 558.3C814 562.3 857 559.7 878.5 558.3L900 557L900 601L878.5 601C857 601 814 601 771.2 601C728.3 601 685.7 601 642.8 601C600 601 557 601 514.2 601C471.3 601 428.7 601 385.8 601C343 601 300 601 257.2 601C214.3 601 171.7 601 128.8 601C86 601 43 601 21.5 601L0 601Z" fill="#c62368"/></svg>